<?xml version="1.0" encoding="UTF-8" standalone="no"?>
<svg
   xmlns:dc="http://purl.org/dc/elements/1.1/"
   xmlns:cc="http://creativecommons.org/ns#"
   xmlns:rdf="http://www.w3.org/1999/02/22-rdf-syntax-ns#"
   xmlns:svg="http://www.w3.org/2000/svg"
   xmlns="http://www.w3.org/2000/svg"
   xmlns:sodipodi="http://sodipodi.sourceforge.net/DTD/sodipodi-0.dtd"
   xmlns:inkscape="http://www.inkscape.org/namespaces/inkscape"
   height="479pt"
   viewBox="0 -23 479.88592 479"
   width="479pt"
   version="1.1"
   id="svg120"
   sodipodi:docname="blizzard_.svg"
   inkscape:version="1.0.1 (c497b03c, 2020-09-10)">
  <metadata
     id="metadata126">
    <rdf:RDF>
      <cc:Work
         rdf:about="">
        <dc:format>image/svg+xml</dc:format>
        <dc:type
           rdf:resource="http://purl.org/dc/dcmitype/StillImage" />
        <dc:title></dc:title>
      </cc:Work>
    </rdf:RDF>
  </metadata>
  <defs
     id="defs124" />
  <sodipodi:namedview
     pagecolor="#ffffff"
     bordercolor="#666666"
     borderopacity="1"
     objecttolerance="10"
     gridtolerance="10"
     guidetolerance="10"
     inkscape:pageopacity="0"
     inkscape:pageshadow="2"
     inkscape:window-width="1871"
     inkscape:window-height="1155"
     id="namedview122"
     showgrid="false"
     inkscape:zoom="1.1508351"
     inkscape:cx="319.33333"
     inkscape:cy="319.33333"
     inkscape:window-x="49"
     inkscape:window-y="23"
     inkscape:window-maximized="1"
     inkscape:current-layer="svg120" />
  <g
     fill="#1e81ce"
     id="g118"
     style="fill:#000000">
    <path
       d="m391.839844 336.542969c-4.417969 0-8-3.582031-8-8s3.582031-8 8-8c39.765625 0 72-32.234375 72-72s-32.234375-72-72-72c-1.199219 0-2.398438 0-3.511719.0625-2.546875.15625-5.011719-.910157-6.640625-2.871094s-2.226562-4.582031-1.609375-7.054687c2.484375-9.855469 3.746094-19.976563 3.761719-30.136719 0-66.273438-53.726563-120-120-120-66.273438 0-120 53.726562-120 120 0 1.601562 0 3.199219.128906 4.839843.230469 2.714844-.9375 5.363282-3.097656 7.023438s-5.019532 2.109375-7.582032 1.183594c-9.449218-3.375-19.414062-5.082032-29.449218-5.046875-48.601563 0-88 39.398437-88 88 0 48.601562 39.398437 88 88 88 4.417968 0 8 3.582031 8 8s-3.582032 8-8 8c-40.027344-.0625-76.46875-23.089844-93.703125-59.21875-17.238281-36.125-12.210938-78.9375 12.925781-110.089844s65.917969-45.113281 104.875-35.898437c2.78125-74.082032 64.386719-132.289063 138.507812-130.867188 74.121094 1.417969 133.449219 61.941406 133.394532 136.074219-.007813 8.109375-.722656 16.207031-2.144532 24.191406 47.375 3.136719 83.722657 43.285156 82.140626 90.738281-1.578126 47.453125-40.519532 85.09375-87.996094 85.070313zm0 0"
       id="path106"
       style="fill:#000000" />
    <path
       d="m191.550781 305.613281-15.710937-9.070312 15.710937-9.070313c3.792969-2.226562 5.082031-7.09375 2.882813-10.902344-2.199219-3.808593-7.058594-5.128906-10.882813-2.957031l-15.710937 9.074219v-18.144531c0-4.417969-3.582032-8-8-8-4.417969 0-8 3.582031-8 8v18.144531l-15.710938-9.074219c-3.824218-2.171875-8.683594-.851562-10.882812 2.957031-2.199219 3.808594-.914063 8.675782 2.882812 10.902344l15.710938 9.070313-15.710938 9.070312c-2.496094 1.421875-4.039062 4.066407-4.046875 6.9375-.007812 2.871094 1.527344 5.527344 4.015625 6.957031 2.488282 1.429688 5.554688 1.414063 8.03125-.035156l15.710938-9.074218v18.144531c0 4.417969 3.582031 8 8 8 4.417968 0 8-3.582031 8-8v-18.144531l15.710937 9.074218c2.476563 1.449219 5.542969 1.464844 8.03125.035156 2.488281-1.429687 4.023438-4.085937 4.015625-6.957031-.007812-2.871093-1.550781-5.515625-4.046875-6.9375zm0 0"
       id="path108"
       style="fill:#000000" />
    <path
       d="m274.480469 324.542969c-2.210938-3.828125-7.101563-5.136719-10.929688-2.929688l-15.710937 9.074219v-18.144531c0-4.417969-3.582032-8-8-8-4.417969 0-8 3.582031-8 8v18.144531l-15.710938-9.074219c-3.824218-2.171875-8.683594-.851562-10.882812 2.957031-2.199219 3.808594-.914063 8.675782 2.882812 10.902344l15.710938 9.070313-15.710938 9.070312c-2.496094 1.421875-4.039062 4.066407-4.046875 6.9375-.007812 2.871094 1.527344 5.527344 4.015625 6.957031 2.488282 1.429688 5.554688 1.414063 8.03125-.035156l15.710938-9.074218v18.144531c0 4.417969 3.582031 8 8 8 4.417968 0 8-3.582031 8-8v-18.144531l15.710937 9.074218c2.476563 1.449219 5.542969 1.464844 8.03125.035156 2.488281-1.429687 4.023438-4.085937 4.015625-6.957031-.007812-2.871093-1.550781-5.515625-4.046875-6.9375l-15.710937-9.070312 15.710937-9.070313c3.828125-2.210937 5.136719-7.105468 2.929688-10.929687zm0 0"
       id="path110"
       style="fill:#000000" />
    <path
       d="m194.480469 372.542969c-2.210938-3.828125-7.101563-5.136719-10.929688-2.929688l-15.710937 9.074219v-18.144531c0-4.417969-3.582032-8-8-8-4.417969 0-8 3.582031-8 8v18.144531l-15.710938-9.074219c-3.824218-2.171875-8.683594-.851562-10.882812 2.957031-2.199219 3.808594-.914063 8.675782 2.882812 10.902344l15.710938 9.070313-15.710938 9.070312c-2.496094 1.421875-4.039062 4.066407-4.046875 6.9375-.007812 2.871094 1.527344 5.527344 4.015625 6.957031 2.488282 1.429688 5.554688 1.414063 8.03125-.035156l15.710938-9.074218v18.144531c0 4.417969 3.582031 8 8 8 4.417968 0 8-3.582031 8-8v-18.144531l15.710937 9.074218c2.476563 1.449219 5.542969 1.464844 8.03125.035156 2.488281-1.429687 4.023438-4.085937 4.015625-6.957031-.007812-2.871093-1.550781-5.515625-4.046875-6.9375l-15.710937-9.070312 15.710937-9.070313c3.828125-2.210937 5.136719-7.105468 2.929688-10.929687zm0 0"
       id="path112"
       style="fill:#000000" />
    <path
       d="m351.550781 401.613281-15.710937-9.070312 15.710937-9.070313c3.792969-2.226562 5.082031-7.09375 2.882813-10.902344-2.199219-3.808593-7.058594-5.128906-10.882813-2.957031l-15.710937 9.074219v-18.144531c0-4.417969-3.582032-8-8-8-4.417969 0-8 3.582031-8 8v18.144531l-15.710938-9.074219c-3.824218-2.171875-8.683594-.851562-10.882812 2.957031-2.199219 3.808594-.914063 8.675782 2.882812 10.902344l15.710938 9.070313-15.710938 9.070312c-2.496094 1.421875-4.039062 4.066407-4.046875 6.9375-.007812 2.871094 1.527344 5.527344 4.015625 6.957031 2.488282 1.429688 5.554688 1.414063 8.03125-.035156l15.710938-9.074218v18.144531c0 4.417969 3.582031 8 8 8 4.417968 0 8-3.582031 8-8v-18.144531l15.710937 9.074218c2.476563 1.449219 5.542969 1.464844 8.03125.035156 2.488281-1.429687 4.023438-4.085937 4.015625-6.957031-.007812-2.871093-1.550781-5.515625-4.046875-6.9375zm0 0"
       id="path114"
       style="fill:#000000" />
    <path
       d="m351.550781 305.613281-15.710937-9.070312 15.710937-9.070313c3.792969-2.226562 5.082031-7.09375 2.882813-10.902344-2.199219-3.808593-7.058594-5.128906-10.882813-2.957031l-15.710937 9.074219v-18.144531c0-4.417969-3.582032-8-8-8-4.417969 0-8 3.582031-8 8v18.144531l-15.710938-9.074219c-3.824218-2.171875-8.683594-.851562-10.882812 2.957031-2.199219 3.808594-.914063 8.675782 2.882812 10.902344l15.710938 9.070313-15.710938 9.070312c-2.496094 1.421875-4.039062 4.066407-4.046875 6.9375-.007812 2.871094 1.527344 5.527344 4.015625 6.957031 2.488282 1.429688 5.554688 1.414063 8.03125-.035156l15.710938-9.074218v18.144531c0 4.417969 3.582031 8 8 8 4.417968 0 8-3.582031 8-8v-18.144531l15.710937 9.074218c2.476563 1.449219 5.542969 1.464844 8.03125.035156 2.488281-1.429687 4.023438-4.085937 4.015625-6.957031-.007812-2.871093-1.550781-5.515625-4.046875-6.9375zm0 0"
       id="path116"
       style="fill:#000000" />
  </g>
</svg>
