<?xml version="1.0" encoding="utf-8"?>
<svg version="1.1" id="Layer_1" xmlns="http://www.w3.org/2000/svg" xmlns:xlink="http://www.w3.org/1999/xlink" x="0px" y="0px"
	 viewBox="0 0 512 512" style="enable-background:new 0 0 512 512;" xml:space="preserve">
<path d="M507.2,191.8c-4.7-4.6-11.7-6-17.7-3.4c-5.7,2.5-12.2,4.3-19.2,5.5c-7,1.2-14.4,1.8-21.8,1.8c-13.9,0-27-2.8-39-7.9
	c-18-7.6-33.3-20.3-44.1-36.4c-5.4-8-9.7-16.8-12.6-26.2c-2.9-9.4-4.5-19.4-4.5-29.8c0-7.5,0.6-14.9,1.8-21.8c1.2-7,3-13.5,5.5-19.2
	c2.6-6,1.3-13.1-3.4-17.7c-4.6-4.6-11.7-6-17.7-3.4C311,43.6,291.3,60.7,277.6,82c-13.7,21.3-21.6,46.7-21.6,73.7v0.1
	c0,2.1,0.1,4.1,0.2,6.2c-7.8-1.3-15.8-2-24.3-2c-17.5,0-34.5,3.1-50.3,9.1c-23.7,9-44.8,24.4-61,45.2C104.5,235,93.1,261,88.2,291
	h-0.1c-10.2,1.6-20.7,4.5-30.7,8.9c-7.5,3.3-14.8,7.4-21.6,12.5c-5.1,3.8-9.9,8.2-14.2,13.1c-6.5,7.4-12,16.2-15.7,26.1
	C2,361.7,0,372.8,0,384.8c0,7.8,0.7,15.2,2.2,22.3c2.5,12.3,7.2,23.3,13.8,32.7c4.9,7.1,10.8,13.2,17.5,18.3
	c9.9,7.7,21.4,13.2,33.7,16.7s25.4,5.2,38.9,5.2h234c16.7,0,32.8-2.9,47.5-8.4c22.1-8.2,41.3-22.3,54.9-41
	c6.8-9.3,12.2-19.8,15.9-31.1s5.7-23.5,5.7-36.3c0-16.4-3-31.5-8.5-45c-4.1-10.1-9.7-19.2-16.3-27.2c-2.8-3.4-5.8-6.6-9-9.6
	c11.3-3.6,21.9-8.7,31.7-15c21.3-13.7,38.4-33.4,48.6-56.9C513.2,203.5,511.9,196.4,507.2,191.8z M431.9,363.2
	c0,12.7-2.6,24.1-7.1,34.3c-3.4,7.6-8,14.6-13.5,20.7c-8.3,9.2-18.8,16.7-30.9,21.8c-12.1,5.2-25.8,8-40.4,8H106
	c-11,0-21.4-1.4-30.4-4.1c-6.8-2-12.9-4.7-18.2-8.1c-4-2.5-7.5-5.4-10.5-8.6c-4.6-4.9-8.2-10.6-10.8-17.5c-2.6-6.9-4.1-15.1-4.1-25
	c0-10,2-18.2,5.1-25.2c2.4-5.2,5.6-9.9,9.4-14c5.7-6.2,12.9-11.3,21-15.1c8.1-3.9,16.9-6.5,25.6-7.9l0,0.1c6.8-1.1,13-4.3,17.6-8.9
	c4.7-4.6,8-10.7,9.1-17.5c2.8-16.7,7.8-31.6,14.7-44.4c10.3-19.3,24.5-34.1,41.1-44.2c16.7-10.1,35.9-15.5,56.4-15.5
	c12.7,0,24.2,2.1,34.5,5.6c15.5,5.4,28.5,14.2,39.1,25.1c10.6,10.9,18.6,23.8,23.6,36.8c4.1,10.5,13.4,18,24.5,19.8
	c11.1,1.8,21.7,5,31.1,9.5c7.1,3.4,13.6,7.4,19.3,12.2c8.6,7.1,15.4,15.6,20.2,25.8C429.1,337.1,431.9,349,431.9,363.2z M389.3,256
	c-9.7-3.7-19.8-6.4-30.3-8.2c-4.4-11.3-10.4-22.3-18-32.6c-11.3-15.5-26.3-29.3-44.7-39.3c-2.3-1.2-4.6-2.4-7-3.5
	c-0.9-5.5-1.4-11-1.4-16.6v-0.1c0-20.8,6-40.2,16.5-56.4c3.5-5.5,7.6-10.6,12.2-15.3c-0.2,3.8-0.4,7.6-0.4,11.4
	c0,18.2,3.7,35.7,10.4,51.5c10.1,23.8,26.8,43.9,47.9,58.2c10.6,7.1,22.2,12.8,34.6,16.7c12.4,3.9,25.7,6,39.3,6
	c3.8,0,7.6-0.1,11.4-0.4c-4.7,4.5-9.8,8.6-15.4,12.2C428.8,249.8,409.7,255.8,389.3,256z"/>
</svg>
