<svg version="1.1" xmlns="http://www.w3.org/2000/svg" xmlns:xlink="http://www.w3.org/1999/xlink" x="0px" y="0px" viewBox="0 0 1000 1000" enable-background="new 0 0 1000 1000" xml:space="preserve">
<g><path d="M945.5,767.3H54.5c-24.6,0-44.5-19.9-44.5-44.6c0-24.6,19.9-44.6,44.5-44.6h890.9c24.6,0,44.5,19.9,44.5,44.6C990,747.3,970.1,767.3,945.5,767.3z M945.5,589.1H54.5c-24.6,0-44.5-19.9-44.5-44.6c0-24.6,19.9-44.6,44.5-44.6h890.9c24.6,0,44.5,20,44.5,44.6C990,569.1,970.1,589.1,945.5,589.1z M722.7,321.8c-35.7,0-68.7,10.7-96.5,28.7c-27.4-118.4-133-206.9-259.8-206.9c-147.6,0-267.3,119.7-267.3,267.3H10C10,214.1,169.6,54.5,366.4,54.5c133.7,0,250.1,73.8,311.1,182.7c14.8-2.5,29.8-4.6,45.3-4.6c116.3,0,215,74.4,251.7,178.2h-97.6C846.1,357.7,788.6,321.8,722.7,321.8z M54.5,856.4h890.9c24.6,0,44.5,19.9,44.5,44.6s-19.9,44.5-44.5,44.5H54.5c-24.6,0-44.5-19.9-44.5-44.5C10,876.3,29.9,856.4,54.5,856.4z"/></g>
</svg>