<?xml version="1.0" encoding="UTF-8" standalone="no"?>
<svg
   xmlns:dc="http://purl.org/dc/elements/1.1/"
   xmlns:cc="http://creativecommons.org/ns#"
   xmlns:rdf="http://www.w3.org/1999/02/22-rdf-syntax-ns#"
   xmlns:svg="http://www.w3.org/2000/svg"
   xmlns="http://www.w3.org/2000/svg"
   xmlns:sodipodi="http://sodipodi.sourceforge.net/DTD/sodipodi-0.dtd"
   xmlns:inkscape="http://www.inkscape.org/namespaces/inkscape"
   height="479pt"
   viewBox="0 -2 479.88592 479"
   width="479pt"
   version="1.1"
   id="svg176"
   sodipodi:docname="heavy_rain_thunder.svg"
   inkscape:version="1.0.1 (c497b03c, 2020-09-10)">
  <metadata
     id="metadata182">
    <rdf:RDF>
      <cc:Work
         rdf:about="">
        <dc:format>image/svg+xml</dc:format>
        <dc:type
           rdf:resource="http://purl.org/dc/dcmitype/StillImage" />
      </cc:Work>
    </rdf:RDF>
  </metadata>
  <defs
     id="defs180" />
  <sodipodi:namedview
     pagecolor="#ffffff"
     bordercolor="#666666"
     borderopacity="1"
     objecttolerance="10"
     gridtolerance="10"
     guidetolerance="10"
     inkscape:pageopacity="0"
     inkscape:pageshadow="2"
     inkscape:window-width="1871"
     inkscape:window-height="1155"
     id="namedview178"
     showgrid="false"
     inkscape:zoom="1.1508351"
     inkscape:cx="319.33333"
     inkscape:cy="319.33333"
     inkscape:window-x="49"
     inkscape:window-y="23"
     inkscape:window-maximized="1"
     inkscape:current-layer="svg176" />
  <g
     fill="#1e81ce"
     id="g174"
     style="fill:#000000">
    <path
       d="m202.800781 453.832031 19.894531-149.289062h-70.296874l125.082031-177.199219-20.191407 121.199219h68.6875zm-19.519531-165.289062h57.703125l-12.105469 90.710937 68.824219-114.710937h-59.3125l11.847656-70.800781zm0 0"
       id="path160"
       style="fill:#000000" />
    <path
       d="m391.839844 336.542969h-16c-4.417969 0-8-3.582031-8-8s3.582031-8 8-8h16c39.765625 0 72-32.234375 72-72s-32.234375-72-72-72c-1.199219 0-2.398438 0-3.511719.0625-2.546875.140625-5.007813-.925781-6.648437-2.878907-1.625-1.960937-2.21875-4.578124-1.601563-7.046874 2.484375-9.855469 3.746094-19.976563 3.761719-30.136719 0-66.273438-53.726563-120-120-120-66.273438 0-120 53.726562-120 120 0 1.601562 0 3.199219.128906 4.847656.226562 2.714844-.941406 5.359375-3.101562 7.019531-2.160157 1.65625-5.015626 2.101563-7.578126 1.179688-9.449218-3.375-19.414062-5.082032-29.449218-5.046875-48.601563 0-88 39.398437-88 88 0 48.601562 39.398437 88 88 88h40c4.417968 0 8 3.582031 8 8s-3.582032 8-8 8h-40c-40.027344-.0625-76.46875-23.089844-93.703125-59.21875-17.238281-36.125-12.210938-78.9375 12.925781-110.089844s65.917969-45.113281 104.875-35.898437c2.78125-74.082032 64.386719-132.289063 138.507812-130.867188 74.121094 1.417969 133.449219 61.941406 133.394532 136.074219-.007813 8.109375-.722656 16.207031-2.144532 24.191406 47.375 3.136719 83.722657 43.285156 82.140626 90.738281-1.578126 47.453125-40.519532 85.09375-87.996094 85.070313zm0 0"
       id="path162"
       style="fill:#000000" />
    <path
       d="m117.902344 410.480469c-3.234375-.003907-6.148438-1.953125-7.386719-4.941407-1.238281-2.988281-.554687-6.429687 1.730469-8.714843l67.875-67.875c3.136718-3.03125 8.128906-2.988281 11.214844.097656 3.085937 3.085937 3.128906 8.078125.097656 11.214844l-67.875 67.875c-1.496094 1.503906-3.53125 2.347656-5.65625 2.34375zm0 0"
       id="path164"
       style="fill:#000000" />
    <path
       d="m293.902344 370.480469c-3.234375-.003907-6.148438-1.953125-7.386719-4.941407-1.238281-2.988281-.554687-6.429687 1.730469-8.714843l67.875-67.875c3.136718-3.03125 8.128906-2.988281 11.214844.097656 3.085937 3.085937 3.128906 8.078125.097656 11.214844l-67.875 67.875c-1.496094 1.503906-3.53125 2.347656-5.65625 2.34375zm0 0"
       id="path166"
       style="fill:#000000" />
    <path
       d="m117.902344 474.480469c-3.234375-.003907-6.148438-1.953125-7.386719-4.941407-1.238281-2.988281-.554687-6.429687 1.730469-8.714843l67.875-67.875c3.136718-3.03125 8.128906-2.988281 11.214844.097656 3.085937 3.085937 3.128906 8.078125.097656 11.214844l-67.875 67.875c-1.496094 1.503906-3.53125 2.347656-5.65625 2.34375zm0 0"
       id="path168"
       style="fill:#000000" />
    <path
       d="m325.902344 442.480469c-3.234375-.003907-6.148438-1.953125-7.386719-4.941407-1.238281-2.988281-.554687-6.429687 1.730469-8.714843l67.875-67.875c3.136718-3.03125 8.128906-2.988281 11.214844.097656 3.085937 3.085937 3.128906 8.078125.097656 11.214844l-67.875 67.875c-1.496094 1.503906-3.53125 2.347656-5.65625 2.34375zm0 0"
       id="path170"
       style="fill:#000000" />
    <path
       d="m229.902344 474.480469c-3.234375-.003907-6.148438-1.953125-7.386719-4.941407-1.238281-2.988281-.554687-6.429687 1.730469-8.714843l67.875-67.875c3.136718-3.03125 8.128906-2.988281 11.214844.097656 3.085937 3.085937 3.128906 8.078125.097656 11.214844l-67.875 67.875c-1.496094 1.503906-3.53125 2.347656-5.65625 2.34375zm0 0"
       id="path172"
       style="fill:#000000" />
  </g>
</svg>
