<?xml version="1.0" encoding="UTF-8" standalone="no"?>
<svg
   xmlns:dc="http://purl.org/dc/elements/1.1/"
   xmlns:cc="http://creativecommons.org/ns#"
   xmlns:rdf="http://www.w3.org/1999/02/22-rdf-syntax-ns#"
   xmlns:svg="http://www.w3.org/2000/svg"
   xmlns="http://www.w3.org/2000/svg"
   xmlns:sodipodi="http://sodipodi.sourceforge.net/DTD/sodipodi-0.dtd"
   xmlns:inkscape="http://www.inkscape.org/namespaces/inkscape"
   height="479pt"
   viewBox="0 -43 479.88592 479"
   width="479pt"
   version="1.1"
   id="svg769"
   sodipodi:docname="lite_snowy.svg"
   inkscape:version="1.0.1 (c497b03c, 2020-09-10)">
  <metadata
     id="metadata775">
    <rdf:RDF>
      <cc:Work
         rdf:about="">
        <dc:format>image/svg+xml</dc:format>
        <dc:type
           rdf:resource="http://purl.org/dc/dcmitype/StillImage" />
      </cc:Work>
    </rdf:RDF>
  </metadata>
  <defs
     id="defs773" />
  <sodipodi:namedview
     pagecolor="#ffffff"
     bordercolor="#666666"
     borderopacity="1"
     objecttolerance="10"
     gridtolerance="10"
     guidetolerance="10"
     inkscape:pageopacity="0"
     inkscape:pageshadow="2"
     inkscape:window-width="1871"
     inkscape:window-height="1155"
     id="namedview771"
     showgrid="false"
     inkscape:zoom="1.1508351"
     inkscape:cx="319.33333"
     inkscape:cy="319.33333"
     inkscape:window-x="49"
     inkscape:window-y="23"
     inkscape:window-maximized="1"
     inkscape:current-layer="svg769" />
  <path
     d="m191.839844 336.542969c6.792968-.011719 13.257812-2.921875 17.769531-8h-35.539063c4.511719 5.078125 10.976563 7.988281 17.769532 8zm0 0"
     fill="#006df0"
     id="path751" />
  <path
     d="m287.839844 336.542969c6.792968-.011719 13.257812-2.921875 17.769531-8h-35.539063c4.511719 5.078125 10.976563 7.988281 17.769532 8zm0 0"
     fill="#006df0"
     id="path753" />
  <g
     fill="#1e81ce"
     id="g767"
     style="fill:#000000">
    <path
       d="m391.839844 336.542969c-4.417969 0-8-3.582031-8-8s3.582031-8 8-8c39.765625-.132813 71.890625-32.476563 71.761718-72.238281-.132812-39.765626-32.476562-71.894532-72.242187-71.761719-1.023437 0-2.054687 0-3.03125.0625-2.546875.15625-5.011719-.910157-6.640625-2.871094s-2.226562-4.582031-1.609375-7.054687c2.484375-9.855469 3.746094-19.976563 3.761719-30.136719 0-66.273438-53.726563-120-120-120-66.273438 0-120 53.726562-120 120 0 1.601562 0 3.199219.128906 4.839843.230469 2.714844-.9375 5.363282-3.097656 7.023438s-5.019532 2.109375-7.582032 1.183594c-9.449218-3.375-19.414062-5.082032-29.449218-5.046875-48.601563 0-88 39.398437-88 88 0 48.601562 39.398437 88 88 88 4.417968 0 8 3.582031 8 8s-3.582032 8-8 8c-40.027344-.0625-76.46875-23.089844-93.703125-59.21875-17.238281-36.125-12.210938-78.9375 12.925781-110.089844s65.917969-45.113281 104.875-35.898437c2.78125-74.082032 64.386719-132.289063 138.507812-130.867188 74.121094 1.417969 133.449219 61.941406 133.394532 136.074219-.007813 8.109375-.722656 16.207031-2.144532 24.191406 47.375 3.136719 83.722657 43.285156 82.140626 90.738281-1.578126 47.453125-40.519532 85.09375-87.996094 85.070313zm0 0"
       id="path755"
       style="fill:#000000" />
    <path
       d="m239.839844 392.542969c-13.253906 0-24-10.746094-24-24 0-13.253907 10.746094-24 24-24s24 10.746093 24 24c0 13.253906-10.746094 24-24 24zm0-32c-4.417969 0-8 3.582031-8 8s3.582031 8 8 8c4.417968 0 8-3.582031 8-8s-3.582032-8-8-8zm0 0"
       id="path757"
       style="fill:#000000" />
    <path
       d="m151.839844 392.542969c-13.253906 0-24-10.746094-24-24 0-13.253907 10.746094-24 24-24s24 10.746093 24 24c0 13.253906-10.746094 24-24 24zm0-32c-4.417969 0-8 3.582031-8 8s3.582031 8 8 8c4.417968 0 8-3.582031 8-8s-3.582032-8-8-8zm0 0"
       id="path759"
       style="fill:#000000" />
    <path
       d="m327.839844 392.542969c-13.253906 0-24-10.746094-24-24 0-13.253907 10.746094-24 24-24s24 10.746093 24 24c0 13.253906-10.746094 24-24 24zm0-32c-4.417969 0-8 3.582031-8 8s3.582031 8 8 8c4.417968 0 8-3.582031 8-8s-3.582032-8-8-8zm0 0"
       id="path761"
       style="fill:#000000" />
    <path
       d="m191.839844 344.542969c-17.671875 0-32-14.328125-32-32s14.328125-32 32-32 32 14.328125 32 32-14.328125 32-32 32zm0-48c-8.835938 0-16 7.164062-16 16 0 8.835937 7.164062 16 16 16 8.835937 0 16-7.164063 16-16 0-8.835938-7.164063-16-16-16zm0 0"
       id="path763"
       style="fill:#000000" />
    <path
       d="m287.839844 344.542969c-17.671875 0-32-14.328125-32-32s14.328125-32 32-32 32 14.328125 32 32-14.328125 32-32 32zm0-48c-8.835938 0-16 7.164062-16 16 0 8.835937 7.164062 16 16 16 8.835937 0 16-7.164063 16-16 0-8.835938-7.164063-16-16-16zm0 0"
       id="path765"
       style="fill:#000000" />
  </g>
</svg>
