<?xml version="1.0" encoding="UTF-8" standalone="no"?>
<svg
   xmlns:dc="http://purl.org/dc/elements/1.1/"
   xmlns:cc="http://creativecommons.org/ns#"
   xmlns:rdf="http://www.w3.org/1999/02/22-rdf-syntax-ns#"
   xmlns:svg="http://www.w3.org/2000/svg"
   xmlns="http://www.w3.org/2000/svg"
   xmlns:sodipodi="http://sodipodi.sourceforge.net/DTD/sodipodi-0.dtd"
   xmlns:inkscape="http://www.inkscape.org/namespaces/inkscape"
   height="480pt"
   viewBox="0 0 480 480.09989"
   width="480pt"
   version="1.1"
   id="svg962"
   sodipodi:docname="moderate_rain.svg"
   inkscape:version="1.0.1 (c497b03c, 2020-09-10)">
  <metadata
     id="metadata968">
    <rdf:RDF>
      <cc:Work
         rdf:about="">
        <dc:format>image/svg+xml</dc:format>
        <dc:type
           rdf:resource="http://purl.org/dc/dcmitype/StillImage" />
      </cc:Work>
    </rdf:RDF>
  </metadata>
  <defs
     id="defs966" />
  <sodipodi:namedview
     pagecolor="#ffffff"
     bordercolor="#666666"
     borderopacity="1"
     objecttolerance="10"
     gridtolerance="10"
     guidetolerance="10"
     inkscape:pageopacity="0"
     inkscape:pageshadow="2"
     inkscape:window-width="1871"
     inkscape:window-height="1155"
     id="namedview964"
     showgrid="false"
     inkscape:zoom="1.1484375"
     inkscape:cx="320"
     inkscape:cy="320"
     inkscape:window-x="49"
     inkscape:window-y="23"
     inkscape:window-maximized="1"
     inkscape:current-layer="svg962" />
  <g
     fill="#1e81ce"
     id="g960"
     style="fill:#000000">
    <path
       d="m202.847656 453.386719 19.90625-149.285157h-70.304687l125.089843-177.203124-20.203124 121.203124h68.683593zm-19.519531-165.285157h57.699219l-12.097656 90.710938 68.832031-114.710938h-59.320313l11.800782-70.800781zm0 0"
       id="path950"
       style="fill:#000000" />
    <path
       d="m391.890625 336.101562h-64c-4.417969 0-8-3.582031-8-8 0-4.421874 3.582031-8 8-8h64c39.761719 0 72-32.238281 72-72 0-39.765624-32.238281-72-72-72-1.199219 0-2.402344 0-3.511719.0625-2.542968.136719-5.003906-.929687-6.640625-2.878906-1.621093-1.960937-2.214843-4.574218-1.601562-7.042968 2.476562-9.855469 3.738281-19.980469 3.753906-30.140626 0-66.277343-53.726563-120-120-120s-120 53.722657-120 120c0 1.597657 0 3.199219.128906 4.796876.234375 2.71875-.933593 5.367187-3.09375 7.03125-2.164062 1.664062-5.023437 2.109374-7.589843 1.1875-9.449219-3.367188-19.414063-5.0625-29.445313-5.015626-48.601563 0-88 39.398438-88 88 0 48.597657 39.398437 88 88 88h32c4.417969 0 8 3.578126 8 8 0 4.417969-3.582031 8-8 8h-32c-40.027344-.0625-76.46875-23.09375-93.703125-59.21875-17.238281-36.128906-12.210938-78.941406 12.925781-110.089843 25.136719-31.152344 65.917969-45.113281 104.871094-35.902344 2.785156-74.082031 64.390625-132.285156 138.507813-130.8671875 74.121093 1.4218745 133.453124 61.9414065 133.398437 136.0781245-.007813 8.109376-.726563 16.203126-2.144531 24.191407 47.375 3.132812 83.722656 43.285156 82.140625 90.738281-1.582031 47.449219-40.519531 85.09375-87.996094 85.070312zm0 0"
       id="path952"
       style="fill:#000000" />
    <path
       d="m311.890625 416.101562c-13.253906 0-24-10.746093-24-24 0-10.226562 12.175781-28.960937 17.414063-36.546874l6.585937-9.535157 6.582031 9.535157c5.242188 7.585937 17.417969 26.320312 17.417969 36.546874 0 13.253907-10.746094 24-24 24zm0-41.167968c-3.566406 5.257812-6.265625 11.054687-8 17.167968 0 4.417969 3.582031 8 8 8s8-3.582031 8-8c-1.738281-6.113281-4.4375-11.910156-8-17.167968zm0 0"
       id="path954"
       style="fill:#000000" />
    <path
       d="m263.890625 480.101562c-13.253906 0-24-10.746093-24-24 0-10.226562 12.175781-28.960937 17.414063-36.546874l6.585937-9.535157 6.582031 9.535157c5.242188 7.585937 17.417969 26.320312 17.417969 36.546874 0 13.253907-10.746094 24-24 24zm0-41.167968c-3.566406 5.257812-6.265625 11.054687-8 17.167968 0 4.417969 3.582031 8 8 8s8-3.582031 8-8c-1.738281-6.113281-4.4375-11.910156-8-17.167968zm0 0"
       id="path956"
       style="fill:#000000" />
    <path
       d="m167.890625 400.101562c-13.253906 0-24-10.746093-24-24 0-10.226562 12.175781-28.960937 17.414063-36.546874l6.585937-9.535157 6.582031 9.535157c5.242188 7.585937 17.417969 26.320312 17.417969 36.546874 0 13.253907-10.746094 24-24 24zm0-41.167968c-3.566406 5.257812-6.265625 11.054687-8 17.167968 0 4.417969 3.582031 8 8 8s8-3.582031 8-8c-1.738281-6.113281-4.4375-11.910156-8-17.167968zm0 0"
       id="path958"
       style="fill:#000000" />
  </g>
</svg>
