<?xml version="1.0" encoding="UTF-8" standalone="no"?>
<svg
   xmlns:dc="http://purl.org/dc/elements/1.1/"
   xmlns:cc="http://creativecommons.org/ns#"
   xmlns:rdf="http://www.w3.org/1999/02/22-rdf-syntax-ns#"
   xmlns:svg="http://www.w3.org/2000/svg"
   xmlns="http://www.w3.org/2000/svg"
   xmlns:sodipodi="http://sodipodi.sourceforge.net/DTD/sodipodi-0.dtd"
   xmlns:inkscape="http://www.inkscape.org/namespaces/inkscape"
   height="480pt"
   viewBox="0 0 480 480.07904"
   width="480pt"
   version="1.1"
   id="svg1125"
   sodipodi:docname="overcast.svg"
   inkscape:version="1.0.1 (c497b03c, 2020-09-10)">
  <metadata
     id="metadata1131">
    <rdf:RDF>
      <cc:Work
         rdf:about="">
        <dc:format>image/svg+xml</dc:format>
        <dc:type
           rdf:resource="http://purl.org/dc/dcmitype/StillImage" />
      </cc:Work>
    </rdf:RDF>
  </metadata>
  <defs
     id="defs1129" />
  <sodipodi:namedview
     pagecolor="#ffffff"
     bordercolor="#666666"
     borderopacity="1"
     objecttolerance="10"
     gridtolerance="10"
     guidetolerance="10"
     inkscape:pageopacity="0"
     inkscape:pageshadow="2"
     inkscape:window-width="1871"
     inkscape:window-height="1155"
     id="namedview1127"
     showgrid="false"
     inkscape:zoom="1.1484375"
     inkscape:cx="320"
     inkscape:cy="320"
     inkscape:window-x="49"
     inkscape:window-y="23"
     inkscape:window-maximized="1"
     inkscape:current-layer="svg1125" />
  <g
     fill="#1e81ce"
     id="g1123"
     style="fill:#000000">
    <path
       d="m296.050781 232.078125h-240c-29.484375.007813-53.921875-22.847656-55.886719-52.265625-1.964843-29.417969 19.214844-55.320312 48.4375-59.238281-.367187-2.816407-.550781-5.652344-.550781-8.496094-.003906-21.734375 11.019531-41.984375 29.277344-53.773437 18.257813-11.792969 41.25-13.511719 61.058594-4.570313 8.5-32.414063 38.238281-54.675781 71.734375-53.703125s61.890625 24.921875 68.496094 57.777344c31.8125-6.363282 64.542968 5.289062 85.175781 30.324218 20.628906 25.035157 25.8125 59.390626 13.488281 89.398438s-40.160156 50.800781-72.429688 54.109375c-2.960937.269531-5.839843.4375-8.800781.4375zm-239.375-96h-.625c-22.089843 0-40 17.910156-40 40 0 22.09375 17.910157 40 40 40h240c2.480469 0 4.871094-.152344 7.28125-.367187 38.15625-3.871094 66.578125-36.972657 64.636719-75.277344-1.941406-38.300782-33.566406-68.359375-71.917969-68.355469-7.355469-.023437-14.667969 1.109375-21.671875 3.359375-2.347656.769531-4.921875.410156-6.96875-.972656-2.050781-1.386719-3.34375-3.640625-3.503906-6.105469-1.945312-29.164063-25.988281-51.925781-55.214844-52.269531-29.222656-.347656-53.796875 21.839844-56.433594 50.949218-.257812 2.851563-2.019531 5.347657-4.621093 6.542969-2.601563 1.199219-5.644531.914063-7.976563-.742187-8.066406-5.726563-17.71875-8.789063-27.609375-8.761719-26.5.027344-47.972656 21.503906-48 48-.003906 4.671875.664063 9.320313 1.984375 13.800781.75 2.5625.171875 5.328125-1.542968 7.375-1.710938 2.050782-4.332032 3.109375-6.984376 2.824219-.277343-.015625-.554687-.015625-.832031 0zm0 0"
       id="path1119"
       style="fill:#000000" />
    <path
       d="m392.050781 480.078125h-240c-29.484375.007813-53.921875-22.847656-55.886719-52.265625-1.964843-29.417969 19.214844-55.320312 48.4375-59.238281-.367187-2.816407-.550781-5.652344-.550781-8.496094-.003906-21.734375 11.019531-41.984375 29.277344-53.773437 18.257813-11.792969 41.25-13.511719 61.058594-4.570313 8.5-32.414063 38.238281-54.675781 71.734375-53.703125s61.890625 24.921875 68.496094 57.777344c31.8125-6.363282 64.542968 5.289062 85.175781 30.324218 20.628906 25.035157 25.8125 59.390626 13.488281 89.398438s-40.160156 50.800781-72.429688 54.109375c-2.960937.269531-5.839843.4375-8.800781.4375zm-239.375-96h-.625c-22.089843 0-40 17.910156-40 40 0 22.09375 17.910157 40 40 40h240c2.480469 0 4.871094-.152344 7.28125-.367187 38.15625-3.871094 66.578125-36.972657 64.636719-75.277344-1.941406-38.300782-33.566406-68.359375-71.917969-68.355469-7.355469-.023437-14.667969 1.109375-21.671875 3.359375-2.347656.769531-4.921875.410156-6.96875-.972656-2.050781-1.386719-3.34375-3.640625-3.503906-6.105469-1.945312-29.164063-25.988281-51.925781-55.214844-52.269531-29.222656-.347656-53.796875 21.839844-56.433594 50.949218-.257812 2.851563-2.019531 5.347657-4.621093 6.542969-2.601563 1.199219-5.644531.914063-7.976563-.742187-8.066406-5.726563-17.71875-8.789063-27.609375-8.761719-26.5.027344-47.972656 21.503906-48 48-.003906 4.671875.664063 9.320313 1.984375 13.800781.75 2.5625.171875 5.328125-1.542968 7.375-1.710938 2.050782-4.332032 3.109375-6.984376 2.824219-.277343-.015625-.554687-.015625-.832031 0zm0 0"
       id="path1121"
       style="fill:#000000" />
  </g>
</svg>
