<?xml version="1.0" encoding="UTF-8" standalone="no"?>
<svg
   xmlns:dc="http://purl.org/dc/elements/1.1/"
   xmlns:cc="http://creativecommons.org/ns#"
   xmlns:rdf="http://www.w3.org/1999/02/22-rdf-syntax-ns#"
   xmlns:svg="http://www.w3.org/2000/svg"
   xmlns="http://www.w3.org/2000/svg"
   xmlns:sodipodi="http://sodipodi.sourceforge.net/DTD/sodipodi-0.dtd"
   xmlns:inkscape="http://www.inkscape.org/namespaces/inkscape"
   height="480pt"
   viewBox="0 0 480 480"
   width="480pt"
   version="1.1"
   id="svg251"
   sodipodi:docname="sunny_.svg"
   inkscape:version="1.0.1 (c497b03c, 2020-09-10)">
  <metadata
     id="metadata257">
    <rdf:RDF>
      <cc:Work
         rdf:about="">
        <dc:format>image/svg+xml</dc:format>
        <dc:type
           rdf:resource="http://purl.org/dc/dcmitype/StillImage" />
        <dc:title></dc:title>
      </cc:Work>
    </rdf:RDF>
  </metadata>
  <defs
     id="defs255" />
  <sodipodi:namedview
     pagecolor="#ffffff"
     bordercolor="#666666"
     borderopacity="1"
     objecttolerance="10"
     gridtolerance="10"
     guidetolerance="10"
     inkscape:pageopacity="0"
     inkscape:pageshadow="2"
     inkscape:window-width="1871"
     inkscape:window-height="1155"
     id="namedview253"
     showgrid="false"
     inkscape:zoom="1.1484375"
     inkscape:cx="320"
     inkscape:cy="320"
     inkscape:window-x="49"
     inkscape:window-y="23"
     inkscape:window-maximized="1"
     inkscape:current-layer="svg251" />
  <g
     fill="#1e81ce"
     id="g249">
    <path
       d="m240 368c-70.691406 0-128-57.308594-128-128s57.308594-128 128-128 128 57.308594 128 128c-.082031 70.65625-57.34375 127.917969-128 128zm0-240c-61.855469 0-112 50.144531-112 112s50.144531 112 112 112 112-50.144531 112-112c-.066406-61.828125-50.171875-111.933594-112-112zm0 0"
       id="path231"
       style="fill:#000000" />
    <path
       d="m240 96c-4.417969 0-8-3.582031-8-8v-80c0-4.417969 3.582031-8 8-8s8 3.582031 8 8v80c0 4.417969-3.582031 8-8 8zm0 0"
       id="path233"
       style="fill:#000000" />
    <path
       d="m132.519531 140.519531c-2.121093 0-4.15625-.84375-5.65625-2.34375l-56.566406-56.574219c-2.160156-1.992187-3.058594-5.003906-2.339844-7.851562.722657-2.847656 2.945313-5.070312 5.792969-5.792969 2.847656-.71875 5.859375.179688 7.851562 2.339844l56.566407 56.566406c2.289062 2.289063 2.972656 5.730469 1.734375 8.71875-1.238282 2.988281-4.15625 4.9375-7.390625 4.9375zm0 0"
       id="path235"
       style="fill:#000000" />
    <path
       d="m88 248h-80c-4.417969 0-8-3.582031-8-8s3.582031-8 8-8h80c4.417969 0 8 3.582031 8 8s-3.582031 8-8 8zm0 0"
       id="path237"
       style="fill:#000000" />
    <path
       d="m75.953125 412.046875c-3.234375 0-6.152344-1.949219-7.390625-4.9375s-.554688-6.429687 1.734375-8.71875l56.566406-56.566406c3.140625-3.03125 8.128907-2.988281 11.214844.097656s3.128906 8.074219.097656 11.214844l-56.574219 56.566406c-1.5 1.5-3.53125 2.34375-5.648437 2.34375zm0 0"
       id="path239"
       style="fill:#000000" />
    <path
       d="m240 480c-4.417969 0-8-3.582031-8-8v-80c0-4.417969 3.582031-8 8-8s8 3.582031 8 8v80c0 4.417969-3.582031 8-8 8zm0 0"
       id="path241"
       style="fill:#000000" />
    <path
       d="m404.046875 412.046875c-2.121094 0-4.15625-.84375-5.65625-2.34375l-56.566406-56.566406c-3.03125-3.140625-2.988281-8.128907.097656-11.214844s8.074219-3.128906 11.214844-.097656l56.566406 56.574219c2.289063 2.289062 2.972656 5.730468 1.734375 8.71875-1.238281 2.988281-4.15625 4.9375-7.390625 4.9375zm0 0"
       id="path243"
       style="fill:#000000" />
    <path
       d="m472 248h-80c-4.417969 0-8-3.582031-8-8s3.582031-8 8-8h80c4.417969 0 8 3.582031 8 8s-3.582031 8-8 8zm0 0"
       id="path245"
       style="fill:#000000" />
    <path
       d="m347.480469 140.519531c-3.234375 0-6.152344-1.949219-7.390625-4.9375-1.238282-2.988281-.554688-6.429687 1.734375-8.71875l56.574219-56.566406c1.992187-2.160156 5.003906-3.058594 7.851562-2.339844 2.847656.722657 5.070312 2.945313 5.792969 5.792969.71875 2.847656-.179688 5.859375-2.339844 7.851562l-56.566406 56.566407c-1.5 1.503906-3.535157 2.347656-5.65625 2.351562zm0 0"
       id="path247"
       style="fill:#000000" />
  </g>
</svg>
