<svg version="1.1" xmlns="http://www.w3.org/2000/svg" xmlns:xlink="http://www.w3.org/1999/xlink" x="0px" y="0px" viewBox="0 0 1000 1000" enable-background="new 0 0 1000 1000" xml:space="preserve">
<g><g transform="translate(0.000000,512.000000) scale(0.100000,-0.100000)"><path d="M784.2,5011.9c-427.8-61.4-736.7-479.6-675.3-917.1c61.4-429.8,495-755.9,905.6-683l107.4,19.2l667.7-667.7l667.7-667.7l282,282l284,283.9l-667.7,671.5l-667.7,671.5l17.3,103.6c38.4,207.2-44.1,477.7-197.6,642.7C1319.5,4954.4,1054.7,5050.3,784.2,5011.9z"/><path d="M8951.7,5010c-330-57.6-598.6-328.1-654.2-663.8c-17.3-94-19.2-163.1-3.8-237.9l17.3-103.6l-667.7-671.5l-667.7-671.5l284-283.9l282-282l667.7,667.7l667.7,667.7l107.5-19.2c408.7-72.9,838.4,249.4,905.6,679.2C9974.3,4630.1,9492.7,5102.1,8951.7,5010z"/><path d="M4705.8,2947.5c-709.9-128.5-1260.5-731-1327.7-1454.3l-13.4-145.8h404.8h404.8v53.7c0,168.9,113.2,401,259,539.1c328.1,310.8,803.9,310.8,1132,0c333.8-316.6,345.3-821.2,26.8-1158.8c-186.1-195.7-364.5-259-740.6-259h-255.2V-293v-815.4h402.9h402.9V-671v435.5l136.2,48c228.3,76.7,410.6,197.6,612,401c280.1,282,414.4,560.2,464.3,949.7c42.2,330-30.7,684.9-201.5,990c-55.7,99.8-140,203.4-272.5,335.8c-213,213-378,318.5-625.5,401C5248.7,2980.1,4984,2997.4,4705.8,2947.5z"/><path d="M642.2,881.2c-328.1-111.3-541-416.3-541-771.3c0-165,42.2-299.3,143.9-450.9c293.5-441.3,978.5-460.5,1295.1-36.4l71,94h466.2h466.2v402.9v402.9h-466.2h-466.2l-69.1,94c-82.5,111.3-268.6,239.8-404.8,280.1C995.2,938.7,793.8,933,642.2,881.2z"/><path d="M8840.4,888.8c-138.1-48-303.1-165-385.7-274.4l-67.1-92.1h-466.2h-466.2V119.5v-402.9h466.2h466.2l69.1-94c82.5-111.3,268.6-239.8,404.8-280.1c326.2-95.9,709.9,40.3,897.9,322.3c364.5,548.7-21.1,1262.5-681.1,1260.5C8997.7,923.4,8901.8,909.9,8840.4,888.8z"/><path d="M4836.3-1563.1c-143.9-74.8-237.9-218.7-239.8-362.6c0-122.8,86.3-274.4,197.6-341.5c247.5-151.6,569.8,11.5,602.4,303.1c19.2,157.3-74.8,318.5-226.4,397.2C5079.9-1522.8,4916.8-1519,4836.3-1563.1z"/><path d="M1789.5-2524.4L1121.8-3192l-107.4,19.2c-234.1,42.2-516.1-57.6-696.5-249.4C-48.5-3809.8,62.8-4454.5,534.7-4686.6c328.1-161.2,658.1-115.1,924.8,128.6c184.2,168.8,287.8,458.5,245.6,688.8l-17.3,103.6l667.7,671.5l667.7,671.5l-284,283.9l-282,282L1789.5-2524.4z"/><path d="M7257.5-2140.6l-282.1-282l667.7-667.7l667.7-667.7l-19.2-107.5c-42.2-234.1,61.4-523.8,253.3-698.4c261-237.9,592.9-284,917.1-122.8c379.9,186.1,544.9,661.9,364.5,1055.2c-140,305.1-523.8,514.2-838.4,456.6l-103.6-17.2L8213-2524.4l-671.5,667.7L7257.5-2140.6z"/></g></g>
</svg>