<?xml version="1.0" encoding="UTF-8" standalone="no"?>
<svg
   xmlns:dc="http://purl.org/dc/elements/1.1/"
   xmlns:cc="http://creativecommons.org/ns#"
   xmlns:rdf="http://www.w3.org/1999/02/22-rdf-syntax-ns#"
   xmlns:svg="http://www.w3.org/2000/svg"
   xmlns="http://www.w3.org/2000/svg"
   xmlns:sodipodi="http://sodipodi.sourceforge.net/DTD/sodipodi-0.dtd"
   xmlns:inkscape="http://www.inkscape.org/namespaces/inkscape"
   height="479pt"
   viewBox="0 -71 479.91074 479"
   width="479pt"
   version="1.1"
   id="svg1840"
   sodipodi:docname="windy.svg"
   inkscape:version="1.0.1 (c497b03c, 2020-09-10)">
  <metadata
     id="metadata1846">
    <rdf:RDF>
      <cc:Work
         rdf:about="">
        <dc:format>image/svg+xml</dc:format>
        <dc:type
           rdf:resource="http://purl.org/dc/dcmitype/StillImage" />
      </cc:Work>
    </rdf:RDF>
  </metadata>
  <defs
     id="defs1844" />
  <sodipodi:namedview
     pagecolor="#ffffff"
     bordercolor="#666666"
     borderopacity="1"
     objecttolerance="10"
     gridtolerance="10"
     guidetolerance="10"
     inkscape:pageopacity="0"
     inkscape:pageshadow="2"
     inkscape:window-width="1871"
     inkscape:window-height="1155"
     id="namedview1842"
     showgrid="false"
     inkscape:zoom="1.1508351"
     inkscape:cx="319.33333"
     inkscape:cy="319.33333"
     inkscape:window-x="49"
     inkscape:window-y="23"
     inkscape:window-maximized="1"
     inkscape:current-layer="svg1840" />
  <g
     fill="#1e81ce"
     id="g1838"
     style="fill:#000000">
    <path
       d="m279.863281 272.554688h-208c-4.417969 0-8-3.582032-8-8 0-4.417969 3.582031-8 8-8h208c4.417969 0 8 3.582031 8 8 0 4.417968-3.582031 8-8 8zm0 0"
       id="path1830"
       style="fill:#000000" />
    <path
       d="m311.863281 304.554688h-208c-4.417969 0-8-3.582032-8-8 0-4.417969 3.582031-8 8-8h208c4.417969 0 8 3.582031 8 8 0 4.417968-3.582031 8-8 8zm0 0"
       id="path1832"
       style="fill:#000000" />
    <path
       d="m279.863281 336.554688h-208c-4.417969 0-8-3.582032-8-8 0-4.417969 3.582031-8 8-8h208c4.417969 0 8 3.582031 8 8 0 4.417968-3.582031 8-8 8zm0 0"
       id="path1834"
       style="fill:#000000" />
    <path
       d="m391.863281 336.554688h-64c-4.417969 0-8-3.582032-8-8 0-4.417969 3.582031-8 8-8h64c39.765625 0 72-32.234376 72-72 0-39.765626-32.234375-72-72-72-1.207031 0-2.398437 0-3.511719.066406-2.542968.128906-5-.9375-6.648437-2.882813-1.625-1.960937-2.21875-4.578125-1.597656-7.046875 2.480469-9.855468 3.742187-19.976562 3.757812-30.136718 0-66.273438-53.726562-120-120-120-66.273437 0-120 53.726562-120 120 0 1.601562 0 3.199218.128907 4.847656.230468 2.714844-.9375 5.359375-3.097657 7.019531-2.164062 1.65625-5.019531 2.105469-7.582031 1.179687-9.449219-3.375-19.414062-5.082031-29.449219-5.046874-36.660156-.007813-69.484375 22.710937-82.390625 57.023437-12.902344 34.316406-3.183594 73.035156 24.398438 97.183594 2.335937 1.828125 3.46875 4.800781 2.945312 7.71875-.527344 2.921875-2.628906 5.308593-5.453125 6.207031-2.828125.898438-5.921875.15625-8.035156-1.925781-35.855469-31.539063-45.640625-83.4375-23.730469-125.871094 21.90625-42.433594 69.882813-64.507813 116.363282-53.542969 2.785156-74.082031 64.386718-132.285156 138.507812-130.867187s133.449219 61.941406 133.394531 136.074219c-.003906 8.113281-.722656 16.207031-2.144531 24.191406 47.375 3.136718 83.722656 43.285156 82.144531 90.738281-1.582031 47.453125-40.519531 85.097656-88 85.070313zm0 0"
       id="path1836"
       style="fill:#000000" />
  </g>
</svg>
